<svg width="414" height="512" viewBox="0 0 414 512" fill="none" xmlns="http://www.w3.org/2000/svg">
<g clip-path="url(#clip0_3_2)">
<path fill-rule="evenodd" clip-rule="evenodd" d="M35.95 0H249.31V146.7C249.31 152.21 253.78 156.68 259.29 156.68H414V476.07C414 485.9 409.96 494.88 403.45 501.41L403.37 501.49C396.84 507.98 387.88 512.01 378.06 512.01H35.95C26.05 512.01 17.06 507.97 10.55 501.46C4.04 494.95 0 485.96 0 476.07V35.94C0 26.05 4.04 17.06 10.55 10.55C17.06 4.04 26.05 0 35.95 0ZM269.28 2.23C270.198 2.84623 271.034 3.57527 271.77 4.4L408.32 136.71H269.28V2.23ZM91.31 419.73C85.79 419.73 81.32 415.26 81.32 409.75C81.32 404.24 85.79 399.76 91.31 399.76H322.69C328.21 399.76 332.68 404.24 332.68 409.75C332.68 415.26 328.21 419.73 322.69 419.73H91.31ZM91.31 343.38C85.79 343.38 81.32 338.91 81.32 333.4C81.32 327.88 85.79 323.41 91.31 323.41H319.09C324.61 323.41 329.08 327.88 329.08 333.4C329.08 338.91 324.61 343.38 319.09 343.38H91.31ZM91.31 267.03C85.79 267.03 81.32 262.56 81.32 257.04C81.32 251.53 85.79 247.06 91.31 247.06H275.62C281.13 247.06 285.61 251.53 285.61 257.04C285.61 262.56 281.13 267.03 275.62 267.03H91.31ZM91.31 190.67C85.79 190.67 81.32 186.2 81.32 180.69C81.32 175.17 85.79 170.7 91.31 170.7H194.21C199.73 170.7 204.2 175.17 204.2 180.69C204.2 186.2 199.73 190.67 194.21 190.67H91.31ZM91.31 114.32C85.79 114.32 81.32 109.85 81.32 104.33C81.32 98.82 85.79 94.35 91.31 94.35H146.72C152.24 94.35 156.71 98.82 156.71 104.33C156.71 109.85 152.24 114.32 146.72 114.32H91.31Z" fill="#8EA4D2"/>
</g>
<defs>
<clipPath id="clip0_3_2">
<rect width="414" height="512.01" fill="white"/>
</clipPath>
</defs>
</svg>
