<svg width="70" height="70" viewBox="0 0 70 70" fill="none" xmlns="http://www.w3.org/2000/svg">
<g clip-path="url(#clip0_44_704)">
<path fill-rule="evenodd" clip-rule="evenodd" d="M34.9987 0.872042C15.6727 0.872042 0 16.5421 0 35.8706C0 51.3354 10.0273 64.4501 23.9341 69.0802C25.6845 69.4043 26.3279 68.3192 26.3279 67.3942C26.3279 66.5597 26.293 63.8029 26.2788 60.8807C16.5409 62.9981 14.4881 56.7494 14.4881 56.7494C12.8965 52.7033 10.6022 51.6273 10.6022 51.6273C7.42678 49.453 10.8438 49.5008 10.8438 49.5008C14.3575 49.7464 16.2075 53.1052 16.2075 53.1052C19.3313 58.456 24.3978 56.907 26.3937 56.0143C26.7089 53.7523 27.6133 52.2073 28.6157 51.3327C20.8413 50.4504 12.6691 47.4482 12.6691 34.0362C12.6691 30.2162 14.0385 27.0925 16.2747 24.6431C15.9105 23.7595 14.7116 20.2018 16.6119 15.3818C16.6119 15.3818 19.5508 14.4401 26.24 18.9693C29.0304 18.1955 32.0236 17.8054 34.9962 17.7925C37.9712 17.8054 40.9696 18.1942 43.7639 18.9693C50.4441 14.4427 53.3804 15.3818 53.3804 15.3818C55.2833 20.2031 54.0897 23.7634 53.7253 24.6432C55.9693 27.0925 57.327 30.2162 57.327 34.0362C57.327 47.4791 49.1367 50.4348 41.3455 51.3017C42.6012 52.3868 43.7225 54.5171 43.7225 57.7803C43.7225 62.4607 43.6825 66.2328 43.6825 67.3839C43.6825 68.3153 44.313 69.4043 46.0879 69.0632C59.9868 64.4307 70.0013 51.3145 70.0013 35.8589C70.0013 16.5329 54.3313 0.860229 35.0013 0.860229L34.9988 0.871933L34.9987 0.872042Z" fill="#8EA4D2"/>
</g>
<defs>
<clipPath id="clip0_44_704">
<rect width="70" height="70" fill="white"/>
</clipPath>
</defs>
</svg>
