<svg width="70" height="70" viewBox="0 0 70 70" fill="none" xmlns="http://www.w3.org/2000/svg">
<g clip-path="url(#clip0_44_701)">
<path d="M54.1939 0H15.8061C7.07661 0 0 7.10938 0 15.8792V54.1208C0 62.8906 7.07661 70 15.8061 70H54.1939C62.9234 70 70 62.8906 70 54.1208V15.8792C70 7.10938 62.9234 0 54.1939 0Z" fill="#8EA4D2"/>
<path fill-rule="evenodd" clip-rule="evenodd" d="M28.0232 27.1325H36.8676V31.6871H36.9961C38.2279 29.4675 41.2398 27.1325 45.731 27.1325C55.0703 27.1325 56.7971 32.9713 56.7971 40.5669V56.6261H47.574L47.5727 42.3236C47.5727 39.0533 47.5057 34.8448 42.7766 34.8448C37.975 34.8448 37.2381 38.4036 37.2381 42.086V56.6261H28.0232V27.1325ZM22.7965 18.1923C22.7965 20.8514 20.6473 23.0106 18.0004 23.0106C15.3521 23.0106 13.2029 20.8514 13.2029 18.1923C13.2029 15.5318 15.3521 13.374 18.0004 13.374C20.6473 13.374 22.7965 15.5318 22.7965 18.1923ZM13.2029 27.1325H22.7965V56.6261H13.2029V27.1325Z" fill="white"/>
</g>
<defs>
<clipPath id="clip0_44_701">
<rect width="70" height="70" fill="white"/>
</clipPath>
</defs>
</svg>
