<svg width="70" height="70" viewBox="0 0 70 70" fill="none" xmlns="http://www.w3.org/2000/svg">
<path fill-rule="evenodd" clip-rule="evenodd" d="M14.3555 0H55.6445C59.4486 0.0105231 63.0939 1.52635 65.7838 4.21624C68.4737 6.90614 69.9895 10.5514 70 14.3555V55.6445C69.9895 59.4486 68.4737 63.0939 65.7838 65.7838C63.0939 68.4737 59.4486 69.9895 55.6445 70H14.3555C10.5514 69.9895 6.90614 68.4737 4.21624 65.7838C1.52635 63.0939 0.0105231 59.4486 0 55.6445L0 14.3555C0.0105231 10.5514 1.52635 6.90614 4.21624 4.21624C6.90614 1.52635 10.5514 0.0105231 14.3555 0ZM16.6911 21.4136L35.319 36.6064L53.1665 21.4136H16.6911ZM15.4891 46.9857L28.7622 33.6727L15.4891 22.8491V46.9857ZM30.2262 34.869L16.5202 48.5864H53.3488L40.2466 34.869L35.9342 38.5433C35.7645 38.6841 35.5509 38.7612 35.3304 38.7612C35.1099 38.7612 34.8963 38.6841 34.7266 38.5433L30.2035 34.8519L30.2262 34.869ZM41.6992 33.6499L54.5109 47.0882V22.7295L41.6992 33.6499Z" fill="#8EA4D2"/>
</svg>
