<svg width="611" height="612" viewBox="0 0 611 612" fill="none" xmlns="http://www.w3.org/2000/svg">
<g clip-path="url(#clip0_44_693)">
<path d="M372.444 420.266C375.389 414.92 377.33 408.781 377.832 402.183C378.771 389.612 374.804 378.524 366.848 369.043C351.584 350.814 331.935 339.976 308.444 336.719C291.155 334.317 275.766 339.287 262.485 350.689C253.903 358.039 246.762 366.579 241.061 376.31C231.916 391.951 227.886 408.029 236.885 425.215C236.635 425.319 236.447 425.486 236.342 425.445C224.921 419.932 213.165 420.872 201.367 423.795C185.184 427.825 170.087 434.716 154.865 441.336C143.109 446.452 131.353 451.776 119.159 455.66C101.807 461.194 84.9556 458.98 69.6917 448.581C60.7337 442.484 55.4717 434.09 55.7641 422.897C55.9102 417.029 57.8522 411.621 60.5249 406.442C68.2718 391.429 79.5057 379.255 92.0551 368.208C100.053 361.171 108.823 355.262 118.929 351.587C133.399 346.324 147.327 347.285 160.44 355.47C177.918 366.371 184.432 387.294 175.788 405.983C168.083 422.626 155.345 433.797 137.283 438.266C132.669 439.415 127.97 439.227 123.481 437.556C115.17 434.445 110.43 428.493 109.741 419.598C108.99 410.034 111.767 401.619 118.699 394.791C121.017 392.514 123.794 391.032 127.135 390.865C130.956 390.677 134.005 392.243 135.216 395.876C136.135 398.633 136.135 401.702 136.49 404.647C136.552 405.21 136.323 405.795 136.281 406.38C136.156 407.842 136.051 409.429 137.805 409.909C139.601 410.41 140.582 409.157 141.271 407.716C145.03 399.907 139.559 387.816 131.207 385.707C125.59 384.287 120.641 386.125 116.277 389.633C105.669 398.132 101.138 415.15 106.004 427.867C110.054 438.433 121.455 445.24 133.232 444.322C144.967 443.424 154.802 438.245 163.572 430.832C173.846 422.166 181.3 411.6 184.119 398.194C185.769 390.259 185.288 382.429 182.616 374.765C182.323 373.909 182.031 373.053 181.593 371.8C182.282 372.155 182.699 372.301 183.054 372.552C194.831 380.466 207.568 382.136 220.807 377.438C241.229 370.171 257.578 357.433 268.603 338.661C277.436 323.584 277.54 307.318 272.738 290.884C269.146 278.543 263.863 266.933 255.511 257.118C246.136 246.114 235.424 236.696 220.348 234.399C216.673 233.835 212.851 233.773 209.134 234.044C205.501 234.315 201.931 235.297 198.172 235.986C198.736 233.48 199.488 230.891 199.905 228.26C201.576 218.09 199.613 208.506 195.103 199.381C189.151 187.374 180.235 177.685 170.818 168.371C159.835 157.534 147.097 148.91 134.757 139.785C128.033 134.815 121.372 129.72 116.298 122.996C114.064 120.031 112.017 116.773 110.597 113.369C107.507 105.915 109.386 99.128 116.131 94.7011C120.892 91.5689 126.154 89.084 131.437 86.8705C139.142 83.6339 147.202 81.4205 155.533 80.5017C163.781 79.5829 171.862 80.5017 179.692 83.2372C200.991 90.671 219.408 102.657 234.505 119.341C244.152 130.012 250.207 142.666 251.752 157.221C252.274 162.19 251.857 167.056 250.291 171.796C245.968 184.889 234.15 189.169 223.271 188.188C205.856 186.622 192.263 177.601 180.736 165.135C174.326 158.202 169.273 150.372 167.226 140.954C164.658 129.177 171.486 119.926 183.555 119.446C197.963 118.861 209.093 125.23 217.633 136.527C218.03 137.049 218.364 137.655 218.656 138.239C220.222 141.371 221.663 144.65 219.136 147.866C216.485 151.228 212.747 151.979 208.738 151.144C201.429 149.641 197.692 144.504 195.541 137.822C195.437 137.508 195.458 137.153 195.374 136.84C194.915 135.211 194.476 133.207 192.346 133.541C190.258 133.875 189.778 135.88 190.028 137.696C191.427 147.552 201.68 159.706 215.67 156.344C223.835 154.402 227.823 146.842 224.983 138.907C222.916 133.144 219.032 128.717 214.397 124.896C205.606 117.65 195.687 113.411 184.098 113.808C172.593 114.184 163.572 121.2 161.61 131.557C160.524 137.279 161.505 142.875 163.635 148.242C169.711 163.485 180.528 174.678 194.058 183.469C202.996 189.295 212.705 193.325 223.48 193.638C228.554 193.784 233.67 192.782 238.744 192.302C238.806 192.135 238.702 192.552 238.514 192.928C230.329 209.32 231.143 225.566 241.98 239.995C259.833 263.738 283.972 276.392 314.04 276.162C326.652 276.058 337.761 270.984 347.429 263.028C359.268 253.276 368.54 241.457 374.804 227.425C380.671 214.269 381.611 201.03 374.699 187.875C374.637 187.75 374.658 187.562 374.637 187.457C378.228 188.48 381.799 189.838 385.474 190.485C394.515 192.051 403.411 190.715 412.16 188.272C429.011 183.573 444.901 176.473 460.75 169.228C472.192 164.007 483.593 158.536 495.955 155.759C510.968 152.397 525.334 154.193 538.677 162.086C546.529 166.722 552.521 173.028 554.756 182.279C556.489 189.441 555.132 196.207 552.292 202.763C548.011 212.703 541.601 221.223 534.48 229.241C526.984 237.698 518.841 245.487 509.486 251.898C498.461 259.457 486.621 264.803 472.902 264.113C453.796 263.153 435.421 250.269 432.143 228.97C431.099 222.162 431.704 215.418 434.377 209.049C441.915 191.195 454.778 179.23 473.738 174.344C478.331 173.153 483.009 173.383 487.561 174.928C495.725 177.705 500.862 184.408 501.53 192.991C502.052 199.694 500.716 205.979 497.291 211.722C495.976 213.914 494.305 215.961 492.489 217.756C488.584 221.599 483.343 222.726 479.689 220.826C476.097 218.947 473.905 213.517 474.636 208.318C474.782 207.336 475.158 206.272 474.949 205.353C474.719 204.35 474.093 202.889 473.362 202.701C472.547 202.492 470.877 203.223 470.543 203.995C469.729 205.77 469.144 207.775 469.102 209.717C469.081 212.097 469.415 214.582 470.104 216.858C472.756 225.524 481.004 229.596 489.336 226.005C492.531 224.626 495.663 222.434 498.001 219.865C505.727 211.283 508.546 200.988 506.542 189.671C504.14 176.139 491.946 167.181 478.206 168.183C466.367 169.04 456.49 174.281 447.616 181.715C437.28 190.36 429.929 200.968 427.111 214.353C425.44 222.288 425.941 230.118 428.635 237.782C428.927 238.638 429.22 239.494 429.658 240.831C427.716 239.661 426.15 238.638 424.521 237.74C412.745 231.267 400.508 231.016 388.251 235.798C369.792 243.002 354.737 254.779 343.984 271.506C334.963 285.559 333.522 301.074 337.302 317.069C341.52 334.965 350.206 350.501 363.298 363.405C372.152 372.134 382.592 378.19 395.351 378.607C401.176 378.795 407.065 377.647 412.912 377.125C412.473 379.088 411.721 381.677 411.304 384.308C409.633 394.477 411.596 404.062 416.127 413.187C422.078 425.194 430.994 434.883 440.412 444.175C451.395 455.013 464.132 463.637 476.473 472.762C483.197 477.732 489.858 482.827 494.932 489.551C497.166 492.516 499.212 495.774 500.632 499.198C503.723 506.653 501.676 513.21 495.141 517.95C487.874 523.212 479.459 525.99 471.065 528.767C453.984 534.447 437.426 533.131 421.243 525.384C404.517 517.386 389.212 507.342 376.85 493.414C367.245 482.577 361.022 469.964 359.477 455.326C358.955 450.356 359.373 445.491 360.939 440.751C365.261 427.679 377.08 423.377 387.98 424.38C405.394 425.967 418.988 434.988 430.514 447.454C436.925 454.387 441.957 462.217 444.024 471.656C446.592 483.412 439.723 492.663 427.674 493.143C413.371 493.728 402.304 487.4 393.743 476.25C393.283 475.665 392.928 474.997 392.594 474.308C391.028 471.175 389.608 467.897 392.135 464.681C394.787 461.319 398.525 460.588 402.534 461.424C409.842 462.948 413.58 468.085 415.71 474.746C415.814 475.059 415.772 475.414 415.877 475.728C416.336 477.356 416.795 479.361 418.925 479.006C420.992 478.651 421.368 476.667 421.243 474.83C420.491 463.387 407.462 453.614 396.29 456.036C387.332 457.999 383.135 465.809 386.539 474.349C388.731 479.862 392.532 484.143 397.063 487.818C405.833 494.959 415.668 499.136 427.173 498.739C438.658 498.342 447.699 491.326 449.641 480.969C450.706 475.247 449.745 469.651 447.595 464.284C441.498 449.041 430.681 437.848 417.171 429.057C408.234 423.231 398.525 419.201 387.729 418.888C382.697 418.763 377.602 419.765 372.444 420.266Z" fill="#FFF9D0"/>
<path d="M253.861 506.82C257.704 496.004 258.894 485.312 258.56 474.391C258.246 463.491 256.409 452.904 252.17 442.714C264.385 451.714 278.042 457.373 292.241 461.904C300.656 464.598 309.154 467.041 317.59 469.693C331.309 473.994 344.819 478.755 357.013 486.628C374.846 498.133 387.332 513.69 392.553 534.467C396.416 549.836 393.993 564.328 385.725 577.985C381.799 584.479 377.539 590.514 371.922 595.63C361.816 604.838 349.809 609.766 336.404 611.5C321.975 613.379 308.298 610.706 295.435 604.003C276.559 594.168 261.065 580.637 251.168 561.551C244.695 549.064 243.066 535.971 249.518 522.795C253.59 514.484 259.875 508.031 267.538 503.062C281.884 493.769 297.294 490.094 314.04 495.294C335.882 502.08 352.19 526.867 349.726 549.272C348.41 561.259 341.415 568.379 329.283 569.465C316.734 570.572 304.999 568.129 295.018 559.88C288.294 554.326 286.415 546.412 290.006 539.521C293.828 532.212 302.326 528.307 310.052 530.312C313.581 531.21 316.254 533.11 317.736 536.514C318.237 537.662 318.592 539.02 319.448 539.813C320.284 540.586 321.954 541.337 322.748 540.982C323.562 540.627 324.397 538.686 324.126 537.788C322.643 532.985 320.2 528.788 315.418 526.428C306.001 521.771 293.786 524.883 287.187 533.695C280.631 542.423 281.299 553.136 288.816 561.384C296.709 570.029 306.962 573.662 318.154 574.852C322.915 575.354 327.884 575.333 332.583 574.56C345.612 572.409 353.756 563.284 355.197 550.108C356.679 536.514 352.733 524.34 345.299 513.168C336.007 499.178 323.291 490.24 306.44 487.985C290.716 485.897 276.517 490.303 263.592 499.115C260.355 501.287 257.39 504.001 253.861 506.82Z" fill="#FFF9D0"/>
<path d="M357.389 105.768C353.568 116.543 352.357 127.256 352.67 138.156C352.983 149.056 354.8 159.643 359.373 170.042C355.029 167.327 351.187 164.717 347.157 162.441C333.961 155.028 319.553 150.747 305.166 146.425C290.695 142.082 276.183 137.863 262.694 130.868C242.147 120.198 227.029 104.683 219.784 82.2766C215.169 67.9936 215.942 53.8985 222.289 40.3046C240.581 1.15165 280.631 -6.76247 310.261 6.07971C331.893 15.4555 349.058 30.1771 360.145 51.2048C366.034 62.3765 367.809 74.3417 363.131 86.5365C359.352 96.3926 352.419 103.806 343.712 109.485C329.409 118.819 313.978 122.495 297.21 117.295C275.348 110.529 258.998 85.7221 261.462 63.3579C262.778 51.3301 269.773 44.1886 281.842 43.1237C294.391 42.0169 306.126 44.4392 316.107 52.6874C322.852 58.2419 324.752 66.1351 321.182 73.047C317.339 80.4599 308.716 84.3648 300.906 82.2557C297.482 81.337 294.892 79.4576 293.431 76.1375C292.992 75.1351 292.533 74.1537 292.032 73.1931C291.259 71.7314 290.09 70.7291 288.398 71.46C286.728 72.17 286.561 73.6525 287.041 75.2813C289.171 82.569 294.955 87.3509 302.639 88.207C315.23 89.5852 326.903 80.46 328.385 67.931C329.116 61.7501 326.861 56.4252 322.894 51.8312C315.043 42.7478 304.56 38.9891 293.076 37.7571C288.231 37.235 283.178 37.2977 278.396 38.0912C265.638 40.2002 257.474 49.3046 255.991 62.1886C254.425 75.866 258.372 88.1235 265.826 99.3787C275.118 113.369 287.814 122.328 304.665 124.604C320.388 126.713 334.587 122.307 347.533 113.515C350.853 111.323 353.818 108.629 357.389 105.768Z" fill="#FFF9D0"/>
<path d="M163.134 350.563C146.742 341.146 130.393 340.645 113.354 347.932C115.233 344.424 117.029 341.438 118.49 338.285C126.655 320.598 127.615 302.619 117.342 285.726C105.231 265.805 87.0854 255.218 63.3021 256.262C48.3096 256.93 38.245 267.141 37.0756 282.113C36.0525 294.976 38.412 307.13 46.1588 317.717C50.8988 324.19 57.0169 328.867 65.5781 328.867C81.7399 328.888 93.0574 309.656 85.3105 295.478C82.8884 291.051 78.8374 288.816 74.3063 287.396C73.4084 287.104 71.4874 287.96 71.1115 288.775C70.7565 289.568 71.6335 291.093 72.26 292.095C72.5941 292.638 73.5128 292.867 74.2228 293.139C81.1344 295.728 82.4708 301.408 82.2202 306.691C81.6355 318.218 69.6916 326.445 59.7314 322.123C55.1376 320.139 51.734 316.693 49.1865 312.454C43.1728 302.389 41.0639 291.448 42.9432 279.942C44.7598 268.854 51.9637 262.673 63.3438 261.67C76.4988 260.522 88.0251 264.865 98.4029 272.529C121.936 289.944 124.608 318.406 110.284 341.939C104.5 351.44 96.7951 358.999 86.4172 363.238C74.2228 368.229 62.0074 366.663 50.8988 360.524C25.4241 346.47 8.03021 325.484 1.51536 296.877C-2.93227 277.373 1.18129 258.768 13.7099 242.981C26.5725 226.777 43.4443 217.234 64.5967 217.213C79.2968 217.213 92.2639 222.831 103.999 231.329C119.785 242.752 129.766 258.517 136.239 276.496C141.313 290.612 145.469 305.062 150.062 319.366C153.32 329.556 157.141 339.517 162.466 348.851C162.654 349.248 162.758 349.624 163.134 350.563Z" fill="#FFF9D0"/>
<path d="M448.158 262.088C464.425 271.401 480.754 272.028 498.022 264.615C497.417 265.721 497.103 266.348 496.748 266.912C487.686 281.821 483.635 297.795 488.793 314.835C495.83 338.097 512.66 350.856 535.817 355.909C541.559 357.162 547.447 356.995 553.211 355.596C564.152 352.944 571.314 346.157 573.423 335.132C576.18 320.682 573.716 306.963 565.029 294.872C560.352 288.357 554.15 283.742 545.589 283.763C529.427 283.805 518.172 303.058 525.982 317.215C528.362 321.538 532.392 323.647 536.756 325.276C538.239 325.819 539.951 325.422 540.223 323.835C540.41 322.77 539.387 321.454 538.719 320.348C538.469 319.93 537.717 319.805 537.195 319.554C530.471 316.359 527.736 310.93 529.364 303.642C530.972 296.417 535.336 291.552 542.561 289.756C549.494 288.023 554.735 291.343 559.12 296.25C565.092 302.932 567.597 311.139 568.516 319.826C568.955 323.939 568.996 328.22 568.37 332.292C566.679 343.526 559.37 349.999 547.823 350.981C534.773 352.088 523.246 347.89 512.994 340.185C490.547 323.355 485.786 295.624 500.841 270.816C505.79 262.652 512.242 255.949 520.615 251.376C534.334 243.858 548.032 245.759 561.354 252.524C572.776 258.308 582.047 266.828 590.107 276.663C598.94 287.417 606.081 299.174 609.213 312.872C613.953 333.44 610.737 352.798 597.624 369.503C584.741 385.937 567.681 395.5 546.299 395.396C531.703 395.333 518.82 389.695 507.147 381.238C491.382 369.795 481.401 354.03 474.949 336.03C469.791 321.663 465.573 306.983 460.896 292.45C457.722 282.594 453.984 272.946 448.848 263.905C448.66 263.424 448.513 262.965 448.158 262.088Z" fill="#FFF9D0"/>
<path d="M172.092 525.948C163.698 522.649 155.303 518.952 146.617 516.071C137.826 513.147 128.659 512.082 119.534 514.839C112.936 516.823 107.695 520.477 106.442 527.806C106.004 530.354 106.379 533.027 106.379 536.034C102.391 532.15 98.0061 529.184 97.0456 522.941C96.2521 517.846 94.2685 512.813 92.1177 508.052C85.3105 492.976 76.6032 479.089 65.411 466.811C61.548 462.572 57.3301 458.855 52.1099 456.37C48.7898 454.783 45.3653 454.073 41.6694 454.783C41.0638 454.909 39.9989 454.47 39.7066 453.948C36.825 448.936 34.0478 443.841 31.4795 438.349C40.0824 442.171 46.3467 439.811 50.8361 432.148C51.0867 432.377 51.2746 432.482 51.3164 432.607C56.0563 447.642 67.3529 455.765 81.4476 460.588C97.5677 466.101 113.583 464.66 129.119 458.333C142.691 452.8 156.055 446.681 169.544 440.918C182.282 435.468 195.082 430.08 208.863 427.971C214.396 427.115 220.201 427.115 225.756 427.804C233.899 428.807 239.996 433.568 244.34 440.521C248.913 447.809 251.084 455.911 252.191 464.326C253.757 476.27 253.423 488.131 250.312 499.846C247.075 512.041 239.829 520.915 228.47 526.386C216.652 532.066 204.311 534.99 191.135 532.88C184.913 531.878 180.235 528.495 176.936 523.171C171.904 515.089 170.024 506.069 169.44 496.734C168.98 489.426 169.482 482.18 172.384 475.352C176.372 465.997 182.845 459.544 193.307 458.02C199.049 457.164 203.852 459.148 207.631 463.449C214.355 471.092 215.148 483.976 209.51 492.433C207.318 495.732 204.457 498.008 200.239 497.799C197.211 497.653 195.04 496.066 193.85 493.31C192.701 490.7 193.578 488.424 195.437 486.461C196.293 485.563 197.504 484.811 197.984 483.746C198.464 482.723 198.694 481.115 198.214 480.196C197.42 478.672 195.833 479.006 194.497 479.862C188.462 483.663 186.165 490.721 189.131 496.338C192.451 502.623 199.947 505.15 206.545 502.122C210.93 500.117 213.937 496.693 215.858 492.37C219.888 483.391 219.826 474.37 215.524 465.537C209.97 454.178 198.569 449.5 186.75 453.927C174.18 458.646 167.331 468.398 164.971 481.157C162.09 496.714 164.157 511.727 171.987 525.718C172.113 525.885 172.154 526.115 172.092 525.948Z" fill="#FFF9D0"/>
<path d="M438.992 86.2441C445.486 89.084 451.792 92.1118 458.286 94.5758C467.473 98.0839 476.974 100.339 486.893 98.773C490.213 98.251 493.595 97.2278 496.56 95.6825C503.576 92.0491 506.207 85.8474 504.683 78.0585C504.62 77.7453 504.621 77.4112 504.516 76.4089C508.337 79.6664 512.555 82.214 513.474 86.8497C515.082 94.9726 517.88 102.573 521.597 109.861C528.153 122.787 535.9 134.94 545.735 145.673C549.535 149.829 553.67 153.545 558.786 156.051C562.252 157.764 565.802 158.62 569.665 157.784C570.166 157.68 571.022 157.931 571.314 158.327C574.989 163.13 577.411 168.559 579.813 174.782C571.189 170.439 564.987 172.777 560.373 180.483C560.101 180.128 559.851 179.919 559.767 179.668C556.885 169.729 550.392 162.629 541.726 157.492C524.666 147.406 506.458 145.882 487.999 152.334C474.573 157.012 461.585 162.984 448.534 168.664C435.003 174.552 421.473 180.378 407.023 183.719C399.589 185.453 392.093 186.309 384.492 184.617C376.808 182.884 371.066 178.541 366.89 172.005C362.317 164.822 360.208 156.782 359.08 148.45C357.493 136.506 357.807 124.645 360.876 112.931C364.05 100.736 371.233 91.7986 382.592 86.2858C394.474 80.5225 406.898 77.5782 420.157 79.7081C426.588 80.7522 431.579 84.1977 434.565 89.8775C442.333 104.599 444.379 120.114 439.18 136.047C436.235 145.068 430.096 151.499 420.554 154.005C413.35 155.905 406.898 153.608 402.45 147.615C396.854 140.077 396.562 127.736 401.845 119.968C403.912 116.94 406.564 114.789 410.447 114.747C413.454 114.706 416.231 116.522 417.359 119.237C418.528 122.014 417.526 124.269 415.605 126.274C414.791 127.109 413.914 127.903 413.141 128.759C412.034 129.97 411.742 131.536 413.078 132.497C413.914 133.102 415.73 133.228 416.607 132.727C422.579 129.344 425.022 122.223 422.35 116.627C419.405 110.425 412.181 107.606 405.603 110.091C401.698 111.573 398.671 114.205 396.687 117.796C390.631 128.759 390.736 139.764 397.564 150.246C404.977 161.627 419.322 163.59 431.266 155.32C440.349 149.056 445.152 140.098 446.739 129.469C448.639 116.773 447.156 104.348 442.207 92.4459C441.351 90.3786 440.119 88.3949 438.992 86.2441Z" fill="#FFF9D0"/>
<path d="M362.735 483.454C342.605 470.048 319.407 464.639 296.834 457.561C283.345 453.342 270.149 448.394 258.476 440.166C253.256 436.512 248.495 432.336 244.716 427.157C236.864 416.403 235.257 404.605 239.725 392.243C246.198 374.368 257.411 359.876 273.364 349.54C287.793 340.185 303.558 339.747 319.615 344.591C335.589 349.415 349.6 357.642 360.73 370.213C370.816 381.614 375.159 394.707 370.774 409.846C367.537 421.018 360.375 428.995 349.517 432.858C330.035 439.769 311.075 438.036 293.243 427.324C290.361 425.591 287.73 423.169 285.621 420.558C279.294 412.79 278.668 404.521 283.888 395.939C289.61 386.521 297.753 380.445 309.154 380.528C317.402 380.591 324.084 384.371 328.782 391.262C329.701 392.619 330.411 394.206 330.87 395.772C332.917 402.579 328.156 408.238 321.119 407.215C315.398 406.38 310.783 403.644 308.027 398.278C307.338 396.941 306.314 395.229 304.665 396.231C303.746 396.795 303.266 398.716 303.287 400.032C303.308 401.264 303.997 402.663 304.811 403.644C310.052 410.013 316.609 413.751 325.107 412.498C333.815 411.203 338.889 403.415 336.362 394.937C333 383.723 324.794 377.563 313.706 375.454C299.027 372.656 282.969 382.449 277.039 397.317C273.531 406.129 274.199 414.691 280.088 422.166C283.178 426.092 286.937 429.955 291.217 432.419C311.827 444.259 333.313 445.721 355.322 436.345C355.698 436.178 356.074 436.032 356.825 435.698C350.415 452.883 355.155 468.273 362.735 483.454Z" fill="#FFF9D0"/>
<path d="M254.467 176.766C260.857 159.622 256.054 144.232 248.057 128.634C250.521 130.158 252.379 131.348 254.237 132.476C267.288 140.327 281.696 144.88 296.083 149.515C309.175 153.733 322.267 157.952 335.151 162.754C343.691 165.928 351.396 170.835 358.391 176.808C373.864 190.046 377.852 206.543 369.646 225.169C363.507 239.097 354.445 250.875 342.313 260.104C326.861 271.881 309.614 273.468 291.468 267.977C275.578 263.174 261.817 254.8 250.521 242.501C238.117 229.012 235.277 210.218 243.463 195.455C247.66 187.917 253.778 182.425 261.859 179.647C281.32 172.965 300.155 174.552 317.903 185.202C320.848 186.977 323.541 189.462 325.713 192.135C332.019 199.944 332.562 208.151 327.3 216.754C321.557 226.151 313.372 232.248 301.971 232.018C292.971 231.831 285.788 227.592 281.445 219.427C279.545 215.835 278.752 211.951 281.696 208.381C284.201 205.353 288.754 204.434 293.222 206C297.607 207.545 301.178 210.03 303.391 214.353C303.892 215.355 305.5 215.793 306.586 216.483C307.108 215.271 307.985 214.102 308.027 212.87C308.068 211.743 307.4 210.469 306.774 209.425C303.161 203.306 293.535 198.838 286.498 199.944C277.52 201.364 272.299 209.07 274.951 217.735C278.355 228.928 286.603 235.067 297.691 237.114C313.33 239.995 330.557 228.448 335.172 212.494C337.531 204.309 336.32 196.603 330.954 190.046C327.843 186.225 324.147 182.467 319.929 180.044C299.382 168.267 277.979 166.847 256.033 176.119C255.657 176.286 255.219 176.453 254.467 176.766Z" fill="#FFF9D0"/>
<path d="M174.389 257.076C172.927 263.466 170.922 269.543 170.233 275.765C168.354 292.575 170.943 308.696 180.862 322.812C187.69 332.522 196.689 338.682 209.385 336.301C216.986 334.881 222.958 330.58 228.115 324.983C237.658 314.626 239.662 300.176 233.022 288.608C229.556 282.552 224.816 277.854 218.009 275.682C208.07 272.508 199.279 278.605 199.091 289.025C198.965 296.417 202.39 302.348 208.111 306.9C209.176 307.756 210.638 308.487 211.953 308.529C213.227 308.55 214.501 307.589 215.775 307.067C215.065 305.981 214.626 304.394 213.624 303.872C209.218 301.596 206.608 297.942 205.292 293.41C204.687 291.343 204.582 288.921 205.021 286.791C205.981 281.988 209.97 279.628 214.793 280.547C222.352 281.967 229.264 289.589 230.913 298.526C232.813 308.821 228.616 316.902 221.454 323.835C220.494 324.754 219.45 325.61 218.343 326.361C205.898 334.944 193.432 332.146 184.558 318.594C177.354 307.589 174.723 295.248 175.266 282.322C175.516 276.475 176.351 270.441 178.126 264.865C184.85 243.9 207.548 233.543 228.22 242.313C237.72 246.343 245.008 253.109 251.23 261.107C260.063 272.466 266.286 285.12 269.042 299.32C272.55 317.424 268.144 333.419 255.824 347.16C247.012 356.974 236.676 364.763 224.586 370.129C210.701 376.289 197.232 376.248 184.579 366.914C177.479 361.651 172.259 354.76 167.832 347.222C160.607 334.881 156.285 321.371 152.213 307.756C147.786 292.888 143.673 277.874 136.824 263.884C133.963 258.058 130.56 252.503 127.323 246.719C141.919 255.51 157.078 262.151 174.389 257.076Z" fill="#FFF9D0"/>
<path d="M484.533 366.245C469.248 357.016 454.068 350.438 436.611 355.554C438.01 350.271 439.806 345.28 440.558 340.143C443.21 322.227 440.934 305.062 430.41 289.861C423.644 280.109 414.645 273.928 401.928 276.246C394.327 277.645 388.335 281.926 383.156 287.501C373.53 297.879 371.505 312.475 378.228 324.085C381.736 330.12 386.476 334.798 393.304 336.928C402.805 339.872 410.907 334.547 412.055 324.649C412.849 317.821 408.109 308.341 402.116 305.062C400.801 304.331 399.13 304.018 397.606 303.997C396.875 303.976 395.768 304.916 395.476 305.689C395.246 306.273 395.894 307.359 396.436 307.986C396.958 308.591 397.815 308.884 398.545 309.28C403.787 312.099 407.587 319.972 406.313 325.422C405.144 330.475 401.323 332.96 396.249 331.979C388.731 330.517 381.841 322.812 380.233 313.874C378.395 303.684 382.571 295.666 389.65 288.775C390.611 287.856 391.655 287 392.741 286.227C405.206 277.54 417.818 280.38 426.693 294.058C433.813 305 436.444 317.278 435.901 330.099C435.63 336.197 434.732 342.482 432.811 348.245C426.025 368.563 403.954 378.628 383.741 370.505C373.822 366.517 366.264 359.542 359.853 351.273C350.833 339.621 344.506 326.633 341.937 312.037C338.93 294.872 343.023 279.545 354.508 266.369C364.322 255.134 375.952 246.322 390.005 241.039C407.044 234.65 422.809 239.118 434.607 253.005C444.337 264.427 450.288 277.749 454.882 291.782C459.225 305.021 463.109 318.406 467.453 331.645C471.274 343.255 476.327 354.322 483.406 364.387C483.677 364.763 483.886 365.18 484.533 366.245Z" fill="#FFF9D0"/>
<path d="M104.73 99.9215C101.326 113.453 108.217 122.766 116.507 131.536C117.425 132.497 118.344 133.499 119.388 134.313C126.55 139.931 133.566 145.715 140.937 151.019C155.491 161.501 169.168 172.924 180.465 186.956C186.75 194.766 191.991 203.139 194.121 213.121C195.416 219.176 195.207 225.232 193.703 231.225C192.221 237.155 188.4 241.29 183.931 245.32C179.421 249.392 174.389 251.564 168.646 252.67C160.67 254.195 153.048 252.733 145.615 249.851C134.443 245.508 124.671 238.847 115.483 231.288C102.851 220.889 91.5331 209.237 82.7631 195.309C77.7308 187.311 74.4107 178.833 75.1624 169.123C76.0185 157.889 83.7863 148.054 94.3311 146.341C98.5491 145.652 103.289 145.986 107.382 147.218C124.024 152.272 137.889 161.71 148.517 175.596C152.86 181.276 155.554 187.687 155.283 195.058C154.969 203.912 148.83 211.325 140.374 212.202C137.471 212.515 134.088 211.868 131.478 210.552C121.81 205.708 115.943 197.668 113.604 187.144C113.312 185.787 113.604 183.615 114.502 182.863C115.379 182.132 117.697 182.174 118.824 182.842C121.414 184.388 123.731 186.455 126.049 188.439C127.177 189.399 127.908 190.903 129.119 191.675C129.891 192.176 131.562 192.197 132.209 191.675C132.856 191.132 133.295 189.316 132.898 188.668C129.056 182.592 124.337 177.434 116.653 176.599C111.161 175.993 107.089 180.796 107.945 186.789C109.428 197.167 115.045 205.165 122.917 211.722C126.488 214.708 130.518 216.9 135.174 217.61C146.408 219.322 156.661 212.452 159.835 201.114C162.132 192.907 160.398 185.244 156.494 177.935C151.962 169.457 145.26 162.838 137.722 157.033C128.847 150.225 119.326 144.629 108.447 141.664C92.3892 137.3 79.4639 143.272 72.3644 158.327C72.2182 158.62 72.072 158.912 71.6962 159.685C67.0606 148.534 60.0864 142.019 47.2238 146.529C50.1053 141.894 52.2769 137.153 58.1653 135.253C66.3298 132.622 73.304 127.59 80.0903 122.39C88.5889 115.875 96.628 108.859 103.707 100.799C103.936 100.569 104.208 100.381 104.73 99.9215Z" fill="#FFF9D0"/>
<path d="M539.575 452.862C544.252 464.243 551.289 470.444 564.549 465.642C561.083 470.779 558.744 475.456 552.772 477.44C543.584 480.488 535.67 486.168 528.362 492.433C521.2 498.551 514.518 505.212 507.627 511.644C507.335 511.915 507.043 512.166 506.395 512.751C509.799 500.41 504.14 491.451 496.728 483.182C489.085 474.663 479.689 468.21 470.459 461.632C455.843 451.233 442.187 439.79 430.89 425.758C424.605 417.969 419.322 409.616 417.171 399.635C415.835 393.496 416.023 387.378 417.568 381.28C419.05 375.433 422.788 371.361 427.173 367.373C431.746 363.218 436.82 360.983 442.646 359.897C450.622 358.394 458.244 359.876 465.678 362.758C476.765 367.081 486.475 373.679 495.6 381.176C508.254 391.575 519.571 403.185 528.362 417.113C533.415 425.111 536.777 433.547 536.088 443.278C535.295 454.637 527.485 464.556 516.836 466.268C512.618 466.936 507.878 466.581 503.785 465.349C487.227 460.317 473.445 450.92 462.838 437.138C458.411 431.396 455.655 424.923 455.947 417.447C456.281 408.698 462.337 401.347 470.668 400.408C473.633 400.074 477.12 400.7 479.793 402.057C489.44 406.902 495.329 414.962 497.667 425.486C498.607 429.725 496.393 431.688 492.551 429.809C489.858 428.493 487.623 426.238 485.306 424.275C484.178 423.315 483.468 421.811 482.257 420.997C481.484 420.475 479.751 420.287 479.188 420.788C478.478 421.414 477.956 423.273 478.373 423.962C482.173 429.976 486.83 435.029 494.41 435.969C500.006 436.658 504.182 431.814 503.284 425.716C501.76 415.338 496.164 407.34 488.271 400.804C484.7 397.839 480.649 395.647 475.993 394.958C464.738 393.287 454.548 400.157 451.395 411.517C449.119 419.723 450.873 427.387 454.778 434.674C459.33 443.152 466.012 449.772 473.571 455.556C482.779 462.614 492.656 468.482 504.078 471.175C519.759 474.892 531.912 468.941 538.782 454.386C538.949 454.052 539.158 453.697 539.575 452.862Z" fill="#FFF9D0"/>
<path d="M174.159 588.029C177.625 584.145 177.959 579.927 176.706 575.542C172.488 560.59 153.758 542.862 133.587 544.866C131.645 545.054 129.683 545.744 127.908 546.579C126.446 547.268 125.339 548.625 126.237 550.484C127.156 552.363 128.659 552.112 130.288 551.402C135.279 549.231 140.332 549.941 145.218 551.549C156.347 555.224 164.595 562.491 169.857 572.952C170.943 575.124 171.528 577.692 171.758 580.115C172.029 583.122 170.192 585.063 167.206 584.771C164.115 584.458 160.92 583.769 158.122 582.474C145.427 576.586 134.819 567.794 125.882 557.166C121.414 551.841 117.822 545.764 114.231 539.771C112.832 537.433 112.268 534.447 111.85 531.69C111.14 526.867 113.521 523.484 117.76 521.396C122.541 519.057 127.72 518.201 132.877 519.057C139.1 520.101 145.427 521.187 151.294 523.358C174.43 531.941 194.351 545.263 209.677 564.892C214.334 570.864 217.988 577.379 219.199 585.043C220.556 593.583 216.213 599.18 207.61 599.472C204.666 599.576 201.596 599.138 198.715 598.428C190.07 596.298 182.198 592.351 174.159 588.029Z" fill="#FFF9D0"/>
<path d="M437.05 24.5599C433.375 28.7363 433.312 33.3093 434.836 38.0912C439.284 51.9775 456.991 69.6224 477.434 67.7431C479.459 67.5552 481.505 66.8451 483.364 65.989C484.846 65.2999 485.911 63.9008 484.972 62.0841C484.011 60.2048 482.508 60.5389 480.9 61.2071C475.366 63.5041 469.854 62.5436 464.571 60.5389C454.861 56.8846 447.302 50.474 442.312 41.3487C440.913 38.7803 439.973 35.7942 439.535 32.8917C439.013 29.5506 440.996 27.4416 444.358 27.7757C447.365 28.068 450.476 28.8198 453.191 30.1144C465.761 36.0239 476.306 44.7524 485.285 55.235C489.315 59.9542 492.677 65.2999 495.934 70.6039C497.5 73.1723 498.398 76.2419 499.15 79.2071C500.486 84.511 498.335 88.7917 493.387 91.1722C488.751 93.3857 483.823 93.9286 478.749 93.5736C470.418 92.9889 462.566 90.5457 454.945 87.33C436.256 79.4367 419.698 68.4322 406.104 53.2304C400.842 47.3418 396.207 41.0146 393.617 33.4764C392.657 30.6782 391.989 27.6504 391.905 24.7061C391.738 17.9405 395.727 13.5762 402.471 13.2004C405.833 13.0124 409.32 13.3674 412.598 14.1818C421.243 16.27 429.115 20.2583 437.05 24.5599Z" fill="#FFF9D0"/>
<path d="M397.334 565.706C402.554 546.955 399.109 530.02 390.569 513.628C404.517 523.484 419.05 532.066 436.048 536.409C430.848 537.767 425.941 538.685 421.306 540.335C415.208 542.528 409.32 545.284 403.327 547.811C403.097 547.915 402.889 548.04 402.68 548.187C401.093 549.147 399.986 550.484 400.947 552.321C401.949 554.242 403.703 553.783 405.311 553.01C408.004 551.695 410.635 550.233 413.392 549.043C427.319 543.071 441.873 540.126 457.033 540.941C461.146 541.17 465.343 541.922 469.269 543.196C474.949 545.054 476.369 549.022 473.884 554.493C471.399 559.922 467.432 564.224 462.942 568.024C447.95 580.699 431.391 590.722 412.41 596.235C406.585 597.927 400.55 599.117 394.369 597.989C387.103 596.653 384.91 591.62 388.314 585.043C396.249 569.653 409.842 562.908 425.962 559.964C428.781 559.442 431.788 559.421 434.648 559.734C437.676 560.047 438.449 561.781 437.196 564.558C435.108 569.194 431.475 572.618 427.403 575.395C423.435 578.11 419.092 580.282 414.895 582.683C414.102 583.142 413.079 583.351 412.494 583.978C411.909 584.625 411.262 585.857 411.512 586.463C411.847 587.256 412.974 588.05 413.872 588.196C414.958 588.363 416.211 588.029 417.276 587.59C425.711 584.061 433.187 579.133 438.992 571.971C440.391 570.238 441.602 568.254 442.458 566.207C444.797 560.528 442.082 555.245 436.048 554.409C432.143 553.866 428.029 553.992 424.125 554.618C415.062 556.101 406.605 559.421 399.005 564.662C398.671 564.934 398.316 565.122 397.334 565.706Z" fill="#FFF9D0"/>
<path d="M213.916 46.9032C208.696 65.634 212.141 82.5689 220.682 98.961C206.733 89.1258 192.221 80.5434 175.224 76.2001C180.402 74.8428 185.288 73.924 189.903 72.2743C196 70.0818 201.889 67.3254 207.882 64.7987C208.341 64.6108 208.78 64.3185 209.155 64.0261C210.492 62.9821 211.306 61.4576 210.137 60.1839C209.427 59.4113 207.652 59.3278 206.42 59.4531C205.418 59.5366 204.52 60.4136 203.538 60.9147C186.416 69.4344 168.396 73.3184 149.269 71.2512C146.721 70.9797 144.153 70.3114 141.773 69.3927C136.427 67.3463 134.694 63.5458 137.346 58.4507C139.267 54.7338 141.793 51.1422 144.717 48.1352C154.886 37.6527 167.268 30.2397 180.194 23.662C190.321 18.4834 200.928 14.8917 212.413 14.4741C213.979 14.4115 215.587 14.4532 217.153 14.7038C223.876 15.8105 226.215 21.0309 223.229 27.1492C217.696 38.5297 208.425 45.4624 196.919 49.6178C192.325 51.2674 187.418 52.061 182.616 53.105C181.258 53.3974 179.776 53.2721 178.377 53.1886C173.47 52.8962 172.301 50.7036 174.911 46.4856C177.938 41.5366 182.344 37.9241 187.168 34.8754C190.195 32.9752 193.474 31.4926 196.648 29.8221C197.379 29.4253 198.318 29.2165 198.819 28.6318C199.383 27.9427 200.051 26.7525 199.801 26.126C199.467 25.3325 198.339 24.539 197.441 24.3929C196.355 24.2258 195.103 24.5599 194.038 24.9984C185.602 28.5274 178.126 33.4763 172.321 40.6178C170.922 42.351 169.711 44.3348 168.855 46.3812C166.517 52.061 169.231 57.344 175.266 58.1793C179.17 58.7222 183.284 58.5969 187.168 57.9704C196.23 56.4878 204.687 53.1886 212.287 47.9056C212.58 47.655 212.935 47.467 213.916 46.9032Z" fill="#FFF9D0"/>
<path d="M0.0537305 254.111C-0.363888 242.626 3.08147 232.374 6.48506 221.87C13.2505 225.608 19.0554 223.29 24.2965 219.281C36.1986 210.176 43.2982 198.316 43.6323 183.072C43.7158 179.334 42.5256 175.534 41.565 171.859C41.2101 170.543 39.999 169.248 38.8087 168.455C38.0988 167.975 36.4492 168.163 35.6975 168.685C35.1128 169.102 34.7787 170.835 35.1755 171.483C40.0616 179.543 38.6626 187.729 35.5931 195.81C32.3983 204.225 27.0737 211.095 19.3686 215.919C17.6564 216.984 15.5892 217.715 13.5846 218.049C10.8074 218.529 9.01167 217.172 8.6567 214.374C8.38524 212.181 8.21818 209.78 8.80285 207.691C15.0045 185.599 26.8649 167.306 45.7412 153.963C47.9128 152.439 50.69 151.583 53.321 150.914C57.2049 149.933 60.337 151.645 62.7383 154.694C66.3298 159.267 67.6244 164.675 68.0629 170.334C68.9191 181.694 66.0584 192.49 63.1559 203.327C61.6316 209.049 59.5644 213.392 52.6319 212.64C29.642 217.882 12.4779 230.745 1.66157 251.835C1.39012 252.357 1.16044 252.9 0.888987 253.401C0.805463 253.589 0.638397 253.652 0.0537305 254.111Z" fill="#FFF9D0"/>
<path d="M610.612 358.77C611.614 369.983 608.169 380.215 604.765 390.719C598 386.981 592.195 389.299 586.954 393.308C575.052 402.412 567.952 414.273 567.639 429.517C567.556 433.254 568.746 437.055 569.706 440.73C570.061 442.046 571.272 443.34 572.463 444.113C573.173 444.593 574.822 444.405 575.574 443.862C576.159 443.445 576.493 441.711 576.096 441.064C571.21 433.004 572.609 424.818 575.678 416.737C578.873 408.322 584.198 401.431 591.903 396.628C593.678 395.521 595.849 394.832 597.937 394.477C600.443 394.039 602.26 395.417 602.573 397.944C602.865 400.22 603.074 402.705 602.469 404.855C596.288 426.948 584.407 445.24 565.53 458.584C563.359 460.108 560.581 460.964 557.95 461.632C554.067 462.614 550.934 460.902 548.533 457.853C544.942 453.28 543.647 447.871 543.208 442.213C542.352 430.853 545.213 420.057 548.116 409.22C549.64 403.498 551.707 399.155 558.639 399.906C581.629 394.644 598.794 381.802 609.61 360.712C609.944 360.064 610.278 359.417 610.612 358.77Z" fill="#FFF9D0"/>
<path d="M574.697 254.069C571.648 252.148 568.976 250.603 566.47 248.807C565.614 248.202 564.946 247.074 564.57 246.03C560.686 235.046 559.182 223.687 559.391 212.077C559.537 203.87 560.456 195.747 563.192 187.958C563.985 185.703 565.05 183.469 566.386 181.485C568.871 177.81 572.129 176.87 575.908 179.167C578.852 180.963 581.588 183.323 583.864 185.891C590.128 192.949 594.283 201.364 598 209.967C603.199 222.016 607.731 234.336 608.796 247.533C609.234 252.963 608.566 258.496 608.065 263.946C607.898 265.659 606.874 267.413 605.893 268.937C604.181 271.61 601.383 272.884 598.543 271.589C595.119 270.023 591.631 268.102 588.98 265.492C580.94 257.578 577.077 247.471 575.741 236.445C575.177 231.684 575.407 226.798 575.741 221.995C575.866 220.304 577.077 217.673 578.288 217.36C579.75 216.963 582.151 218.153 583.446 219.385C589.898 225.483 593.239 233.355 595.599 241.728C595.87 242.689 595.849 243.858 596.413 244.589C597.123 245.508 598.272 246.114 599.232 246.844C599.9 245.905 600.777 245.049 601.153 244.004C601.445 243.211 601.299 242.167 601.09 241.29C598.731 231.747 594.805 222.998 587.831 215.877C586.557 214.582 585.054 213.434 583.467 212.578C578.539 209.926 573.716 211.617 571.502 216.796C569.518 221.431 569.414 226.38 569.665 231.308C570.041 238.596 571.46 245.696 574.175 252.503C574.363 252.921 574.446 253.297 574.697 254.069Z" fill="#FFF9D0"/>
<path d="M36.5953 358.561C39.6022 360.461 42.4002 362.09 45.0312 363.928C45.7621 364.429 46.2841 365.452 46.5973 366.35C50.4812 377.417 52.0472 388.86 51.8175 400.533C51.6505 408.656 50.7944 416.695 48.059 424.401C47.182 426.886 45.9709 429.329 44.4674 431.479C42.2541 434.653 39.3099 435.51 35.9271 433.609C33.0038 431.96 30.164 429.83 27.9924 427.303C24.8602 423.649 21.9995 419.66 19.6609 415.463C11.5591 400.951 5.60804 385.603 2.85176 369.148C1.72419 362.382 1.39009 355.533 3.03968 348.747C3.41554 347.222 4.02108 345.719 4.79367 344.361C6.81912 340.812 10.0348 339.392 13.6681 341.25C17.1552 343.025 20.7467 345.259 23.2733 348.183C33.7555 360.273 37.3262 374.619 35.4886 390.343C35.2798 392.118 34.2149 394.477 32.795 395.271C30.7696 396.419 28.9112 394.415 27.4495 392.953C21.2479 386.751 17.8651 379.004 15.5682 370.693C15.2341 369.482 15.0671 368.166 14.4406 367.143C14.0022 366.433 12.7911 365.598 12.1438 365.744C11.3294 365.932 10.4106 366.955 10.0974 367.811C9.74244 368.772 9.82597 370.004 10.0765 371.027C12.5196 381.092 16.6749 390.259 24.3174 397.526C25.0899 398.278 25.9878 398.904 26.9066 399.468C32.3774 402.788 38.2449 401.034 39.8945 394.895C41.1265 390.322 41.4397 385.352 41.3771 380.591C41.3144 373.47 39.6231 366.559 36.9712 359.897C36.8668 359.605 36.7832 359.229 36.5953 358.561Z" fill="#FFF9D0"/>
<path d="M277.185 600.182C272.821 597.655 268.457 595.149 264.114 592.602C263.174 592.059 262.318 591.391 261.379 590.869C259.959 590.075 258.351 590.096 257.724 591.6C257.328 592.539 257.641 594.314 258.351 595.045C259.833 596.569 261.775 597.634 263.55 598.908C255.302 603.982 232.25 603.669 221.997 598.303C226.841 589.887 225.067 581.597 221.245 573.474C215.461 561.196 206.253 551.716 196.126 543.008C194.643 541.713 193.098 540.481 191.052 538.79C210.596 540.189 227.76 535.553 242.732 523.567C241.959 527.034 240.957 530.291 240.539 533.653C238.744 547.873 243.129 560.507 250.938 572.138C257.745 582.286 266.265 590.806 275.912 598.24C276.475 598.678 276.998 599.159 277.561 599.639C277.415 599.785 277.311 599.973 277.185 600.182Z" fill="#FFF9D0"/>
<path d="M334.086 12.4068C338.513 14.9752 342.939 17.5436 347.366 20.133C348.306 20.6759 349.162 21.6573 350.123 21.7617C351.25 21.887 352.858 21.6364 353.526 20.8847C354.006 20.3627 353.714 18.358 353.067 17.6898C351.501 16.1237 349.538 14.9752 347.721 13.6388C356.387 8.60632 379.356 8.94044 389.274 14.307C384.618 22.3255 386.1 30.3232 389.608 38.2373C394.495 49.2002 402.304 57.9286 411.032 65.9472C413.83 68.5156 416.754 70.9379 420.074 73.7987C400.654 72.4205 383.49 77.0353 368.54 89.0422C369.312 85.555 370.314 82.2766 370.732 78.9355C372.528 64.7152 368.122 52.0818 360.312 40.4508C353.505 30.3023 344.986 21.7826 335.318 14.3488C334.754 13.9103 334.253 13.43 333.71 12.9706C333.835 12.7827 333.961 12.5947 334.086 12.4068Z" fill="#FFF9D0"/>
<path d="M557.658 149.098C556.196 147.887 554.61 146.801 553.294 145.464C538.469 130.242 527.402 112.659 520.469 92.5503C519.717 90.3786 519.425 88.019 519.133 85.722C518.903 83.9889 519.822 83.3415 521.409 84.2186C523.434 85.3671 525.522 86.4529 527.339 87.8937C536.798 95.4529 544.628 104.599 551.791 114.246C556.948 121.179 561.584 128.529 566.115 135.901C567.723 138.532 568.433 141.768 569.331 144.775C569.644 145.84 569.498 147.093 569.351 148.242C569.184 149.724 568.14 150.1 567.055 149.265C565.488 148.054 563.693 146.842 562.711 145.214C558.389 138.114 554.234 130.889 550.162 123.622C548.742 121.095 547.74 118.318 546.445 115.708C545.965 114.768 545.359 113.787 544.545 113.119C543 111.866 540.974 112.785 541.037 114.768C541.079 116.209 541.475 117.734 542.06 119.07C546.466 129.177 551.206 139.095 557.763 148.033C557.888 148.221 557.95 148.45 558.055 148.68C557.909 148.826 557.783 148.952 557.658 149.098Z" fill="#FFF9D0"/>
<path d="M53.6551 463.491C55.2838 464.89 57.0587 466.164 58.5412 467.709C72.6776 482.389 83.2642 499.324 90.2802 518.451C91.1781 520.936 91.721 523.588 92.076 526.219C92.431 528.829 91.554 529.477 89.3197 528.182C86.7305 526.7 84.1412 525.071 81.9487 523.087C68.1256 510.558 56.4949 496.191 46.9523 480.196C44.6763 476.396 43.3399 471.99 41.9618 467.73C41.5233 466.373 42.3794 464.619 42.6299 463.032C43.9663 463.741 45.6159 464.159 46.5973 465.203C48.6228 467.396 50.6482 469.714 52.0681 472.324C56.2234 479.925 60.1073 487.672 64.0955 495.377C64.7011 496.567 65.1814 497.883 66.0792 498.823C66.7057 499.47 68.0838 499.992 68.8355 499.72C69.5246 499.491 70.1928 498.134 70.2137 497.256C70.2345 496.066 69.7752 494.813 69.2949 493.686C64.889 483.579 60.1491 473.66 53.6133 464.702C53.4463 464.472 53.3419 464.18 53.1957 463.909C53.3419 463.762 53.5089 463.616 53.6551 463.491Z" fill="#FFF9D0"/>
<path d="M501.071 530.98C508.087 512.939 549.953 479.34 559.934 482.117C559.12 484.352 558.64 486.753 557.449 488.695C554.359 493.727 551.206 498.781 547.594 503.437C538.949 514.505 529.678 525.029 518.694 533.82C515.291 536.535 511.302 538.602 507.398 540.628C506.103 541.296 504.245 540.815 502.637 540.857C503.117 539.354 503.159 537.37 504.161 536.409C509.11 531.607 514.163 526.867 519.488 522.502C523.413 519.287 527.84 516.718 531.975 513.753C533.603 512.584 536.109 511.31 534.48 508.867C532.872 506.486 530.659 508.219 528.989 509.284C519.154 515.486 509.695 522.168 501.071 530.98Z" fill="#FFF9D0"/>
<path d="M110.18 81.5874C103.519 98.9818 62.7591 132.33 51.567 130.68C51.9011 129.281 51.9011 127.694 52.611 126.546C56.0981 120.782 59.3555 114.81 63.4482 109.485C72.0303 98.2719 81.4058 87.6849 92.4936 78.852C96.0434 76.0329 100.24 73.9866 104.291 71.8775C105.461 71.272 107.152 71.7105 108.593 71.6687C108.238 73.0469 108.3 74.8218 107.423 75.7197C103.31 79.9378 99.1546 84.1976 94.6026 87.9146C89.9043 91.7568 84.6841 94.9726 79.7353 98.5224C78.6704 99.2951 77.5429 100.13 76.812 101.195C76.3944 101.78 76.3944 103.096 76.7911 103.701C77.167 104.286 78.3572 104.745 79.0672 104.62C80.2574 104.411 81.4476 103.847 82.4916 103.2C92.2013 96.9981 101.598 90.3786 110.18 81.5874Z" fill="#FFF9D0"/>
<path d="M131.395 57.0099C130.1 69.3927 131.645 71.5017 145.301 76.4089C139.622 78.3091 133.942 79.917 128.492 82.1304C123.042 84.3439 117.843 87.142 112.623 89.6269C113.312 88.2696 114.252 86.6409 115.003 84.9495C117.217 79.917 118.95 74.8219 116.59 69.2883C116.402 68.8498 116.715 67.9518 117.091 67.576C121.205 63.337 125.945 60.0377 131.395 57.0099Z" fill="#FFF9D0"/>
<path d="M479.772 555.6C481.464 543.676 479.939 541.609 465.678 536.034C477.35 532.797 488.605 529.226 498.837 522.252C497.417 525.363 496.039 528.015 494.994 530.771C493.449 534.822 492.781 538.978 494.577 543.196C494.765 543.655 494.598 544.574 494.243 544.929C490.129 549.189 485.327 552.572 479.772 555.6Z" fill="#FFF9D0"/>
<path d="M530.91 241.436C539.387 232.478 547.301 223.29 553.21 213.162C554.568 223.415 555.967 233.898 557.366 244.506C549.16 241.541 540.223 240.183 530.91 241.436Z" fill="#FFF9D0"/>
<path d="M58.0401 399.426C56.6619 389.09 55.242 378.586 53.843 368.062C62.1119 371.09 70.9863 372.405 80.3618 371.153C71.9468 380.048 63.9703 389.215 58.0401 399.426Z" fill="#FFF9D0"/>
<path d="M544.816 400.909C542.666 408.802 540.598 416.319 538.448 424.171C533.248 413.02 525.94 403.435 517.901 394.227C526.525 397.881 535.357 400.429 544.816 400.909Z" fill="#FFF9D0"/>
<path d="M72.8238 188.334C78.0022 199.694 85.4149 209.174 93.3915 218.404C84.7468 214.687 75.8515 212.139 66.4342 211.68C68.5849 203.828 70.6521 196.248 72.8238 188.334Z" fill="#FFF9D0"/>
<path d="M8.69838 328.512C10.3897 330.935 11.7679 332.877 13.2295 334.965C10.5777 335.236 8.13459 335.487 5.33655 335.779C6.44324 333.419 7.4664 331.206 8.69838 328.512Z" fill="#FFF9D0"/>
<path d="M449.474 585.272C443.189 590.472 436.131 594.251 428.363 596.736C435.4 592.915 442.437 589.094 449.474 585.272Z" fill="#FFF9D0"/>
<path d="M35.7392 464.953C34.9458 461.695 34.2358 458.772 33.4214 455.452C37.5559 459.335 37.7647 460.275 35.7392 464.953Z" fill="#FFF9D0"/>
<path d="M377.873 597.592C379.293 596.152 380.254 595.149 381.36 594.022C382.3 595.734 383.114 597.217 384.242 599.263C382.049 598.699 380.233 598.219 377.873 597.592Z" fill="#FFF9D0"/>
<path d="M545.213 515.215C547.113 512.918 549.013 510.621 550.934 508.303C551.06 508.407 551.206 508.512 551.331 508.616C549.515 510.997 547.677 513.377 545.86 515.758C545.631 515.59 545.422 515.403 545.213 515.215Z" fill="#FFF9D0"/>
</g>
<defs>
<clipPath id="clip0_44_693">
<rect width="611" height="612" fill="white" transform="translate(0 0)"/>
</clipPath>
</defs>
</svg>
